<svg xmlns="http://www.w3.org/2000/svg" viewBox="0 0 256 134" width="256" height="134">
  <g fill="#777BB3">
    <path d="M128 0C57.221 0 0 29.848 0 66.667c0 36.819 57.221 66.666 128 66.666s128-29.847 128-66.666C256 29.848 198.779 0 128 0zm0 117.333c-62.277 0-112.778-22.667-112.778-50.666S65.723 16 128 16s112.778 22.667 112.778 50.667-50.501 50.666-112.778 50.666z"/>
    <path d="M128 100c-41.421 0-75-15.147-75-33.333S86.579 33.333 128 33.333 203 48.48 203 66.667 169.421 100 128 100z"/>
  </g>
  <text x="128" y="85" font-family="Arial, sans-serif" font-size="48" font-weight="bold" fill="#FFF" text-anchor="middle">PHP</text>
</svg>
